# xmcd
#
# Track frame offsets:
# 150
# 17582
# 36131
# 50039
# 69808
# 88401
# 103527
# 120254
# 138002
# 155658
# 171810
# 184987
# 211414
# 226755
# 245996
#
# Disc length: 3533 seconds
#
# Revision: 1
# Processed by: cddbd v1.5.2PL0 Copyright (c) Steve Scherf et al.
# Submitted via: CedeCatalogueitor 2.6.0.6 http://personales.ya.com/cdcatalogueitor
#
DISCID=c80dcb0f
DTITLE=Varios Artistas - Stereo Party 2008
DYEAR=1900
DGENRE=
TTITLE0=Spam: Más
TTITLE1=Humbert Humbert: Tic-tac
TTITLE2=La China: En El Ascensor...
TTITLE3=L Kan: Todo Lo Que No
TTITLE4=Spunkfool: Excusas
TTITLE5=Tulsa: Estúpida
TTITLE6=Vanexxa: Espejismo
TTITLE7=McEnroe: Islandia
TTITLE8=Krakovia: We're Born In Your City
TTITLE9=Líneas Albiés: Double Captain Sensitive
TTITLE10=Seine: Le Quatidien
TTITLE11=The Unfinished Sympathy: Spin In The Rye (Spam Rmx)
TTITLE12=Sterlin: Love Love
TTITLE13=Los Ronaldos: No Puedo Vivir Sin Ti
TTITLE14=Cathy Claret: We Are Dreamers
EXTD=
EXTT0=
EXTT1=
EXTT2=
EXTT3=
EXTT4=
EXTT5=
EXTT6=
EXTT7=
EXTT8=
EXTT9=
EXTT10=
EXTT11=
EXTT12=
EXTT13=
EXTT14=
PLAYORDER=
